<svg width="33" height="32" viewBox="0 0 33 32" fill="none" xmlns="http://www.w3.org/2000/svg">
<g id="account-check">
<path id="Vector" d="M29.0225 16.6666L30.8892 18.5466L22.1825 27.3333L17.5558 22.6666L19.4225 20.7866L22.1825 23.5599L29.0225 16.6666ZM14.2225 22.6666L18.2225 26.6666H4.88916V23.9999C4.88916 21.0533 9.66249 18.6666 15.5558 18.6666L18.0758 18.8133L14.2225 22.6666ZM15.5558 5.33325C16.9703 5.33325 18.3269 5.89515 19.3271 6.89535C20.3273 7.89554 20.8892 9.2521 20.8892 10.6666C20.8892 12.0811 20.3273 13.4376 19.3271 14.4378C18.3269 15.438 16.9703 15.9999 15.5558 15.9999C14.1413 15.9999 12.7848 15.438 11.7846 14.4378C10.7844 13.4376 10.2225 12.0811 10.2225 10.6666C10.2225 9.2521 10.7844 7.89554 11.7846 6.89535C12.7848 5.89515 14.1413 5.33325 15.5558 5.33325Z" fill="#4E5EE4"/>
</g>
</svg>
