<svg width="33" height="32" viewBox="0 0 33 32" fill="none" xmlns="http://www.w3.org/2000/svg">
<g id="calendar-multiple-check">
<path id="Vector" d="M28.3337 22.6666V10.6666H9.66699V22.6666H28.3337ZM28.3337 3.99992C29.0409 3.99992 29.7192 4.28087 30.2193 4.78097C30.7194 5.28106 31.0003 5.95934 31.0003 6.66659V22.6666C31.0003 23.3738 30.7194 24.0521 30.2193 24.5522C29.7192 25.0523 29.0409 25.3333 28.3337 25.3333H9.66699C8.18699 25.3333 7.00033 24.1333 7.00033 22.6666V6.66659C7.00033 5.95934 7.28128 5.28106 7.78137 4.78097C8.28147 4.28087 8.95975 3.99992 9.66699 3.99992H11.0003V1.33325H13.667V3.99992H24.3337V1.33325H27.0003V3.99992H28.3337ZM23.707 14.7466L17.787 20.6666L14.2137 17.0933L15.627 15.6799L17.787 17.8399L22.2937 13.3333L23.707 14.7466ZM4.33366 27.9999H23.0003V30.6666H4.33366C2.85366 30.6666 1.66699 29.4666 1.66699 27.9999V11.9999H4.33366V27.9999Z" fill="#4E5EE4"/>
</g>
</svg>
