<svg width="33" height="32" viewBox="0 0 33 32" fill="none" xmlns="http://www.w3.org/2000/svg">
<g id="card-search-outline">
<path id="Vector" d="M16.1112 21.3333C17.2712 21.3333 18.3646 20.9866 19.2846 20.3999L22.5379 23.6533L24.4312 21.7599L21.1779 18.5199C21.7646 17.5866 22.1112 16.5066 22.1112 15.3333C22.1112 11.9999 19.4446 9.33325 16.1112 9.33325C12.7779 9.33325 10.1112 11.9999 10.1112 15.3333C10.1112 18.6666 12.7779 21.3333 16.1112 21.3333ZM16.1112 11.9999C17.9512 11.9999 19.4446 13.4933 19.4446 15.3333C19.4446 17.1733 17.9512 18.6666 16.1112 18.6666C14.2712 18.6666 12.7779 17.1733 12.7779 15.3333C12.7779 13.4933 14.2712 11.9999 16.1112 11.9999ZM27.4446 5.33325H6.11125C4.64458 5.33325 3.44458 6.53325 3.44458 7.99992V23.9999C3.44458 25.4666 4.64458 26.6666 6.11125 26.6666H27.4446C28.9112 26.6666 30.1112 25.4666 30.1112 23.9999V7.99992C30.1112 6.53325 28.9112 5.33325 27.4446 5.33325ZM27.4446 23.9999H6.11125V7.99992H27.4446V23.9999Z" fill="#4E5EE4"/>
</g>
</svg>
