<svg width="32" height="32" viewBox="0 0 32 32" fill="none" xmlns="http://www.w3.org/2000/svg">
<g id="credit-card-multiple">
<path id="Vector" d="M28.0002 12V8H9.3335V12H28.0002ZM28.0002 4C28.7074 4 29.3857 4.28095 29.8858 4.78105C30.3859 5.28115 30.6668 5.95942 30.6668 6.66667V20C30.6668 20.7072 30.3859 21.3855 29.8858 21.8856C29.3857 22.3857 28.7074 22.6667 28.0002 22.6667H9.3335C8.62625 22.6667 7.94797 22.3857 7.44788 21.8856C6.94778 21.3855 6.66683 20.7072 6.66683 20V6.66667C6.66683 5.95942 6.94778 5.28115 7.44788 4.78105C7.94797 4.28095 8.62625 4 9.3335 4H28.0002ZM4.00016 25.3333H24.0002V28H4.00016C3.29292 28 2.61464 27.719 2.11454 27.219C1.61445 26.7189 1.3335 26.0406 1.3335 25.3333V10.6667H4.00016V25.3333Z" fill="#4E5EE4"/>
</g>
</svg>
