<svg width="33" height="32" viewBox="0 0 33 32" fill="none" xmlns="http://www.w3.org/2000/svg">
<g id="file-document-edit">
<path id="Vector" d="M8.4445 2.66675C6.9645 2.66675 5.77783 3.85341 5.77783 5.33341V26.6667C5.77783 27.374 6.05878 28.0523 6.55888 28.5524C7.05898 29.0525 7.73725 29.3334 8.4445 29.3334H13.7778V26.7867L16.5645 24.0001H8.4445V21.3334H19.2312L21.8978 18.6667H8.4445V16.0001H24.5645L27.1112 13.4534V10.6667L19.1112 2.66675H8.4445ZM17.7778 4.66675L25.1112 12.0001H17.7778V4.66675ZM27.3112 17.3334C27.1112 17.3334 26.9245 17.4001 26.7778 17.5467L25.4178 18.9067L28.2045 21.6801L29.5645 20.3334C29.8445 20.0401 29.8445 19.5601 29.5645 19.2801L27.8312 17.5467C27.6845 17.4001 27.4978 17.3334 27.3112 17.3334ZM24.6312 19.6934L16.4445 27.8934V30.6667H19.2178L27.4178 22.4667L24.6312 19.6934Z" fill="#4E5EE4"/>
</g>
</svg>
