<svg width="33" height="32" viewBox="0 0 33 32" fill="none" xmlns="http://www.w3.org/2000/svg">
<g id="home-account">
<path id="Vector" d="M16.1112 4L2.77783 16H6.77783V26.6667H25.4445V16H29.4445L16.1112 4ZM16.1112 11.6667C16.9068 11.6667 17.6699 11.9827 18.2325 12.5453C18.7951 13.108 19.1112 13.871 19.1112 14.6667C19.1112 15.4623 18.7951 16.2254 18.2325 16.788C17.6699 17.3506 16.9068 17.6667 16.1112 17.6667C15.3155 17.6667 14.5525 17.3506 13.9898 16.788C13.4272 16.2254 13.1112 15.4623 13.1112 14.6667C13.1112 13.871 13.4272 13.108 13.9898 12.5453C14.5525 11.9827 15.3155 11.6667 16.1112 11.6667ZM16.1112 20C18.1112 20 22.1112 21 22.1112 23V24H10.1112V23C10.1112 21 14.1112 20 16.1112 20Z" fill="#4E5EE4"/>
</g>
</svg>
