<svg width="33" height="32" viewBox="0 0 33 32" fill="none" xmlns="http://www.w3.org/2000/svg">
<g id="home-thermometer-outline">
<path id="Vector" d="M16.5555 2.66675L3.22217 16.0001H5.88883V28.0001H27.2222V16.0001H29.8888L16.5555 2.66675ZM16.5555 6.66675L24.5555 14.6667V25.3334H8.5555V14.6667L16.5555 6.66675ZM16.5555 10.6667C15.8222 10.6667 15.2222 11.2667 15.2222 12.0001V17.6934C14.3955 18.1734 13.8888 19.0534 13.8888 20.0001C13.8888 21.4801 15.0888 22.6667 16.5555 22.6667C18.0222 22.6667 19.2222 21.4801 19.2222 20.0001C19.2222 19.0534 18.7155 18.1734 17.8888 17.6934V12.0001C17.8888 11.2667 17.2888 10.6667 16.5555 10.6667Z" fill="#4E5EE4"/>
</g>
</svg>
