<svg width="33" height="32" viewBox="0 0 33 32" fill="none" xmlns="http://www.w3.org/2000/svg">
<g id="logout-variant">
<path id="Vector" d="M19.4398 20.7867L22.8932 17.3333H9.99984V14.6667H22.8932L19.4398 11.2133L21.3332 9.33333L27.9998 16L21.3332 22.6667L19.4398 20.7867ZM25.9998 4C26.7071 4 27.3854 4.28095 27.8855 4.78105C28.3856 5.28115 28.6665 5.95942 28.6665 6.66667V12.8933L25.9998 10.2267V6.66667H7.33317V25.3333H25.9998V21.7733L28.6665 19.1067V25.3333C28.6665 26.0406 28.3856 26.7189 27.8855 27.219C27.3854 27.719 26.7071 28 25.9998 28H7.33317C5.85317 28 4.6665 26.8 4.6665 25.3333V6.66667C4.6665 5.18667 5.85317 4 7.33317 4H25.9998Z" fill="white"/>
</g>
</svg>
