<svg width="33" height="32" viewBox="0 0 33 32" fill="none" xmlns="http://www.w3.org/2000/svg">
<g id="logout">
<path id="Vector" d="M21.5555 22.6667V18.6667H12.2222V13.3334H21.5555V9.33342L28.2222 16.0001L21.5555 22.6667ZM18.8888 2.66675C19.5961 2.66675 20.2744 2.9477 20.7745 3.4478C21.2745 3.94789 21.5555 4.62617 21.5555 5.33341V8.00008H18.8888V5.33341H6.88883V26.6667H18.8888V24.0001H21.5555V26.6667C21.5555 27.374 21.2745 28.0523 20.7745 28.5524C20.2744 29.0525 19.5961 29.3334 18.8888 29.3334H6.88883C6.18159 29.3334 5.50331 29.0525 5.00322 28.5524C4.50312 28.0523 4.22217 27.374 4.22217 26.6667V5.33341C4.22217 4.62617 4.50312 3.94789 5.00322 3.4478C5.50331 2.9477 6.18159 2.66675 6.88883 2.66675H18.8888Z" fill="#4E5EE4"/>
</g>
</svg>
